<?xml version="1.0" standalone="no"?>
<!DOCTYPE svg PUBLIC "-//W3C//DTD SVG 20010904//EN"
 "http://www.w3.org/TR/2001/REC-SVG-20010904/DTD/svg10.dtd">
<svg version="1.0" xmlns="http://www.w3.org/2000/svg"
 width="433.000000pt" height="577.000000pt" viewBox="0 0 433.000000 577.000000"
 preserveAspectRatio="xMidYMid meet">
<metadata>
Created by potrace 1.16, written by Peter Selinger 2001-2019
</metadata>
<g transform="translate(0.000000,577.000000) scale(0.100000,-0.100000)"
fill="#000000" stroke="none">
<path d="M1523 5584 c-9 -15 -16 -43 -16 -63 2 -52 -17 -120 -37 -131 -9 -5
-49 -73 -88 -153 -70 -140 -72 -145 -69 -213 1 -52 -2 -75 -15 -93 l-17 -25
-26 56 c-47 103 -43 227 11 291 23 27 24 35 19 109 -3 45 -1 77 4 74 5 -3 11
0 14 8 3 8 28 27 56 42 28 16 53 34 55 40 3 7 -14 17 -40 24 -42 12 -46 11
-70 -11 -13 -12 -38 -43 -54 -68 -26 -42 -29 -54 -28 -132 1 -79 -12 -129 -34
-129 -3 0 -6 35 -5 78 2 71 0 77 -18 77 -17 0 -20 -7 -22 -57 -1 -31 -6 -65
-12 -76 -21 -39 -11 -85 40 -194 59 -128 70 -187 44 -254 -14 -38 -15 -51 -5
-72 6 -15 15 -69 19 -122 4 -52 13 -105 19 -117 17 -32 52 -144 52 -169 0 -11
-7 -29 -15 -40 -20 -27 -19 -42 8 -78 16 -20 26 -52 31 -89 5 -49 2 -73 -26
-159 -30 -97 -31 -102 -18 -162 25 -115 29 -169 14 -193 -21 -34 -34 -28 -34
15 0 20 -12 73 -26 117 -22 67 -25 92 -21 158 l5 78 -25 -33 c-13 -18 -27 -45
-30 -60 -3 -16 -9 -28 -14 -28 -25 0 -47 107 -29 140 10 18 8 31 -6 68 -11 29
-18 76 -18 123 -1 67 -4 80 -29 113 -22 29 -27 43 -22 66 8 38 0 38 -20 1 -13
-26 -13 -33 0 -58 19 -36 19 -81 -1 -161 -15 -61 -15 -67 1 -94 13 -23 15 -41
9 -96 -4 -37 -7 -76 -5 -87 2 -23 45 -65 67 -65 11 0 14 -20 14 -107 -1 -155
-16 -215 -74 -290 -35 -44 -49 -73 -53 -104 -3 -24 -10 -50 -16 -56 -6 -9 -6
-13 2 -13 6 0 11 -7 11 -15 0 -22 -22 -8 -50 31 -14 19 -35 48 -48 64 -13 16
-21 34 -17 40 3 5 1 10 -5 10 -6 0 -9 4 -6 8 3 5 -1 20 -9 35 -10 20 -11 27
-2 27 7 0 4 5 -6 11 -9 6 -15 14 -12 19 3 5 0 12 -6 16 -8 5 -10 3 -4 -7 4 -8
-1 -5 -11 6 -10 11 -26 26 -34 34 -13 11 -12 12 10 6 25 -7 25 -7 4 9 -12 8
-27 35 -33 60 -14 55 -29 67 -29 23 0 -17 -4 -64 -8 -104 -6 -65 -5 -72 13
-84 20 -12 20 -12 1 -45 -14 -24 -19 -51 -19 -102 0 -82 11 -108 56 -142 19
-14 42 -42 51 -63 17 -37 17 -42 0 -105 -27 -98 -32 -245 -12 -314 11 -39 16
-96 16 -185 0 -70 5 -158 10 -195 9 -62 8 -73 -21 -155 -36 -102 -44 -115 -52
-76 -11 56 -48 121 -88 157 -62 56 -88 28 -33 -36 34 -42 60 -131 46 -160 -8
-19 -11 -20 -11 -5 -2 34 -60 134 -101 173 -23 21 -55 51 -71 66 -35 32 -37
63 -7 121 24 49 26 107 5 159 -15 35 -53 78 -69 78 -5 0 -6 -29 -2 -64 9 -88
1 -110 -50 -145 -46 -32 -86 -105 -86 -157 0 -42 37 -110 95 -172 68 -74 75
-89 75 -160 0 -45 -7 -77 -30 -127 -23 -51 -30 -81 -30 -130 0 -56 -3 -65 -25
-79 -13 -9 -34 -16 -46 -16 -21 0 -22 3 -15 69 5 56 3 71 -10 82 -23 19 -45
-11 -74 -100 -21 -66 -21 -73 -6 -95 8 -14 25 -27 36 -31 33 -11 36 -50 6 -93
-35 -51 -35 -120 -1 -194 15 -31 25 -71 25 -98 0 -97 91 -224 200 -280 63 -32
204 -76 271 -85 26 -3 71 -21 103 -40 31 -18 81 -45 113 -59 31 -15 78 -47
105 -72 60 -56 132 -90 222 -104 96 -15 249 2 376 42 105 33 196 37 525 27
293 -10 312 -12 367 -35 126 -53 387 -53 565 0 153 46 188 76 181 157 l-3 44
120 42 c143 50 188 52 281 17 88 -33 115 -27 190 38 62 54 89 91 78 109 -3 6
-10 45 -15 86 -5 44 -17 89 -29 110 -22 38 -25 80 -10 133 14 48 -2 57 -33 20
-40 -47 -53 -100 -35 -145 12 -32 12 -43 -3 -102 -23 -95 -60 -114 -136 -73
-21 11 -56 20 -79 20 -40 0 -134 34 -134 48 0 36 83 112 123 112 29 0 110 46
144 82 58 60 62 98 42 358 -11 138 -11 148 10 214 40 129 25 220 -47 281 -64
54 -96 175 -68 254 21 57 20 61 -8 61 -31 0 -97 -104 -104 -165 -4 -39 -1 -47
32 -79 89 -90 86 -175 -11 -272 -16 -16 -25 -20 -28 -11 -3 6 -21 61 -40 122
-32 102 -35 119 -35 236 0 141 -8 175 -57 239 -34 44 -34 45 -27 122 7 83 -8
128 -42 128 -13 0 -15 -7 -10 -35 4 -21 0 -61 -9 -99 -16 -63 -16 -64 10 -121
18 -42 24 -67 19 -92 -3 -18 -10 -33 -14 -33 -10 0 -34 66 -65 185 -25 94 -26
108 -20 245 6 139 28 288 61 415 21 79 20 123 -7 203 -27 83 -37 95 -45 54 -4
-18 -12 -32 -19 -32 -10 0 -10 7 -1 33 18 50 28 63 66 82 44 23 57 40 65 87 8
48 -21 247 -47 318 -21 59 -19 106 8 183 12 33 12 47 3 69 -16 39 -29 35 -29
-8 0 -41 -12 -66 -51 -112 -35 -40 -38 -88 -8 -126 19 -25 21 -36 17 -134 -6
-139 -27 -196 -107 -279 l-59 -63 -7 39 c-5 30 1 57 28 127 43 109 67 190 67
222 0 14 -9 39 -19 56 -48 79 -65 223 -36 306 29 81 14 145 -36 162 -11 4 -12
9 -2 29 25 52 36 125 25 168 -6 27 -7 54 -1 74 5 17 6 48 3 69 -4 21 -1 58 6
82 14 51 8 85 -8 46 -5 -14 -22 -35 -36 -47 -32 -28 -34 -72 -6 -138 26 -61
25 -102 -4 -157 -13 -24 -27 -55 -31 -67 -4 -13 -16 -32 -26 -42 -28 -28 -24
-75 8 -105 24 -22 26 -31 25 -94 -1 -56 -8 -88 -38 -158 -20 -48 -38 -103 -40
-122 -4 -32 -2 -30 23 22 39 80 83 92 83 23 0 -49 -41 -136 -79 -168 -18 -15
-36 -27 -40 -27 -5 0 -18 -22 -29 -50 -22 -53 -48 -66 -57 -27 -20 90 -25 118
-25 166 0 35 -6 61 -16 72 -14 16 -14 24 10 93 15 41 29 103 31 138 3 35 11
93 17 129 11 67 3 154 -11 130 -5 -8 -10 4 -14 31 -4 32 -1 54 13 84 11 22 20
51 19 65 0 22 -1 22 -16 -8 -23 -47 -43 -50 -43 -8 0 18 5 37 10 40 6 4 24 34
41 68 24 47 31 73 30 112 -2 27 -2 68 -3 90 0 77 -19 229 -35 284 -37 130
-147 305 -217 345 -25 15 -28 20 -21 49 12 49 11 90 -2 94 -6 2 -14 -10 -18
-29 -4 -18 -15 -46 -25 -63 -10 -16 -20 -46 -24 -66 -9 -53 -72 -129 -105
-129 -15 0 -32 -5 -39 -12 -19 -19 -14 -63 9 -84 21 -19 22 -19 15 4 -6 18 -4
22 13 22 22 0 27 -10 12 -26 -5 -5 -14 -25 -20 -45 -13 -40 -78 -112 -93 -103
-28 17 -35 69 -30 215 4 126 2 156 -13 196 -28 75 -37 76 -28 3 12 -94 8 -151
-11 -188 -27 -52 -62 -8 -44 55 15 54 -3 59 -25 8 -20 -45 -20 -49 -4 -118 10
-40 17 -81 17 -93 0 -15 6 -20 23 -20 17 1 23 -5 25 -28 4 -28 3 -29 -35 -23
-21 4 -101 7 -178 7 l-139 0 -64 66 -64 66 7 -66 c6 -60 5 -66 -12 -66 -18 0
-38 26 -88 115 -31 55 -114 167 -151 203 -18 17 -24 34 -24 63 0 23 -7 57 -16
75 -13 28 -14 40 -5 60 14 32 14 34 -4 34 -8 0 -22 -12 -32 -26z m1253 -266
c55 -71 89 -140 119 -244 24 -81 35 -205 16 -176 -19 31 -19 -33 1 -82 28 -71
22 -149 -17 -207 l-28 -44 -22 70 c-23 76 -48 130 -73 158 -22 25 -26 345 -5
394 7 18 13 40 13 49 0 30 -29 -5 -42 -50 -6 -22 -19 -49 -29 -58 -11 -11 -19
-42 -24 -94 -4 -43 -11 -88 -16 -101 -9 -24 1 -27 -104 31 -25 14 -41 31 -43
44 -5 34 38 170 75 237 35 62 96 125 123 125 8 0 34 -24 56 -52z m-1166 -6
c53 -55 108 -136 138 -202 l21 -45 -25 -26 c-13 -14 -24 -37 -24 -51 0 -19
-14 -37 -50 -68 l-50 -42 0 64 c0 62 -28 148 -48 148 -5 0 -19 -11 -32 -25
-20 -22 -22 -31 -16 -80 4 -33 2 -64 -4 -75 -6 -11 -15 -44 -21 -74 -8 -43
-85 -195 -114 -224 -10 -10 -26 54 -26 107 0 37 8 79 25 124 14 37 26 86 26
110 -1 41 -1 41 -15 17 l-13 -25 -7 28 c-15 58 1 151 36 217 34 65 122 170
142 170 6 0 32 -22 57 -48z m333 -274 c-10 -4 -31 -12 -47 -18 -16 -6 -27 -12
-25 -14 2 -1 56 2 119 7 109 9 305 -2 332 -19 24 -15 -32 -287 -72 -346 l-21
-33 5 55 c4 30 2 69 -3 85 l-9 30 -1 -28 c-1 -16 -10 -49 -21 -75 -10 -26 -24
-90 -30 -143 -6 -65 -18 -114 -35 -150 -14 -30 -25 -63 -25 -73 0 -16 8 -12
43 21 188 179 233 234 314 377 30 51 36 73 38 135 2 40 6 75 9 78 9 10 47 -9
96 -48 l50 -39 0 -73 c0 -63 -4 -79 -28 -118 -16 -24 -50 -59 -77 -78 l-48
-34 7 39 c4 21 9 53 12 69 l5 30 -23 -37 c-13 -20 -38 -63 -57 -95 -19 -32
-55 -83 -81 -113 -68 -80 -150 -209 -150 -235 0 -3 39 -5 88 -5 48 0 114 -7
147 -15 33 -8 75 -14 94 -15 29 0 32 2 20 16 -12 14 -8 15 33 9 25 -4 61 -4
79 0 l33 8 -27 21 -27 22 37 18 c20 9 69 39 109 66 85 57 81 60 91 -86 6 -93
-14 -245 -41 -309 -7 -16 -19 -43 -25 -59 -58 -142 -307 -309 -628 -421 -49
-18 -53 -18 -110 0 -221 69 -388 152 -536 267 -45 36 -172 225 -189 282 -8 25
-12 103 -11 206 1 143 5 181 27 275 32 131 21 106 103 239 41 66 75 111 86
112 28 4 99 43 131 72 15 15 37 45 47 67 10 22 27 51 39 64 20 23 21 23 41 5
21 -18 21 -18 40 5 10 13 19 32 19 43 0 17 3 16 35 -9 30 -24 33 -29 18 -35z
m586 -700 l34 -32 -22 -18 c-27 -21 -78 -37 -150 -45 l-53 -6 17 33 c28 54 83
98 125 99 8 1 30 -13 49 -31z m-580 -1185 c-27 -131 -25 -172 10 -211 21 -23
39 -32 61 -32 34 0 33 4 9 -139 -14 -86 -14 -85 34 -59 39 21 43 28 59 88 9
36 16 85 17 109 1 24 3 42 6 39 3 -3 14 -53 25 -113 11 -60 22 -110 25 -113
18 -18 17 73 -2 168 l-6 35 24 -16 c61 -40 139 -26 160 28 15 37 5 137 -20
208 -18 50 -18 55 -3 43 47 -37 111 -108 126 -140 10 -22 29 -41 47 -48 49
-21 75 -46 104 -104 15 -30 42 -69 61 -87 l33 -32 34 22 34 21 17 -44 c34 -88
32 -107 -15 -196 -24 -44 -65 -105 -92 -135 -27 -30 -45 -55 -40 -55 19 0 104
63 128 94 13 17 39 65 58 107 35 77 63 104 74 71 3 -9 17 -43 31 -74 27 -63
27 -76 -3 -298 -7 -58 -17 -148 -20 -200 -4 -52 -15 -165 -25 -250 -11 -85
-26 -232 -35 -327 -8 -94 -18 -179 -21 -188 -4 -9 1 -105 12 -212 l18 -196 38
-40 c59 -64 72 -99 58 -158 -12 -47 -31 -79 -50 -79 -4 0 -7 31 -6 70 1 66 -1
71 -31 102 -35 35 -42 28 -18 -18 17 -33 19 -71 5 -128 -10 -46 -24 -57 -59
-46 -70 21 -75 31 -73 128 1 34 -1 62 -3 62 -12 0 -45 -84 -45 -115 0 -42 -18
-53 -58 -36 -54 23 -64 56 -56 193 5 110 3 142 -25 302 -17 99 -31 212 -31
252 0 39 -4 95 -10 123 -12 64 -80 284 -86 279 -2 -3 5 -53 16 -113 23 -124
25 -171 5 -110 -19 59 -60 198 -85 293 l-23 83 23 77 c24 81 68 177 114 250
40 63 26 61 -28 -4 l-46 -56 0 46 c0 32 10 65 30 106 17 33 27 60 23 60 -9 -1
-71 -81 -88 -114 -15 -29 -45 -117 -45 -130 1 -6 7 0 15 14 14 25 14 25 15
-16 0 -23 -11 -81 -25 -128 -14 -47 -25 -96 -25 -109 0 -12 14 -67 30 -122 16
-55 57 -205 90 -333 l60 -233 -18 -42 c-11 -23 -49 -89 -86 -146 -36 -57 -66
-108 -66 -113 0 -15 53 33 94 85 21 26 40 47 41 45 2 -2 -6 -30 -17 -63 -12
-33 -22 -85 -22 -117 l-1 -56 -140 -7 c-77 -3 -183 -5 -235 -3 l-95 3 -6 51
c-4 29 -10 57 -13 63 -14 21 6 11 26 -14 36 -46 36 -26 0 42 -19 38 -69 110
-110 161 l-74 93 7 52 c4 29 24 103 46 166 48 137 83 261 115 401 28 124 29
132 8 194 -21 61 -14 68 14 13 26 -50 27 -44 7 34 -15 57 -41 112 -90 189 -28
43 -101 113 -92 87 4 -10 14 -43 23 -75 9 -31 26 -75 37 -97 20 -40 58 -155
51 -155 -2 0 -22 19 -44 43 -38 40 -40 40 -28 12 6 -16 31 -60 55 -97 l42 -67
-34 -138 c-19 -76 -46 -172 -59 -213 l-25 -75 5 175 c3 96 4 173 1 170 -10
-10 -57 -349 -67 -490 -15 -196 -60 -435 -86 -455 -9 -6 -15 -44 -19 -108 -5
-110 -17 -144 -56 -166 -24 -13 -29 -13 -53 2 -23 16 -26 24 -26 78 0 66 7 85
46 124 33 33 26 40 -21 25 -55 -18 -69 -49 -70 -147 0 -82 0 -83 -25 -83 -53
0 -68 10 -73 48 -5 45 14 112 42 148 30 38 28 57 -3 43 -37 -17 -87 -94 -94
-145 -7 -44 -7 -44 -30 -28 -20 14 -23 22 -17 52 9 51 31 91 75 137 32 35 39
51 53 130 36 196 50 373 43 540 -10 249 -36 625 -46 670 -15 66 -32 364 -25
421 7 56 19 70 28 34 14 -55 111 -209 153 -245 25 -20 48 -35 51 -32 3 3 -9
27 -27 54 -30 44 -58 94 -127 222 -12 24 -23 51 -22 60 0 9 34 43 76 76 41 33
85 69 97 80 39 35 386 323 392 325 1 0 -7 -39 -17 -87z m-209 32 c-11 -13 -9
-15 10 -13 29 4 35 -24 8 -41 -12 -7 -17 -8 -13 -2 10 18 -11 13 -26 -6 -12
-14 -12 -16 1 -9 8 4 2 -3 -15 -16 -16 -13 -39 -23 -50 -23 -11 0 -19 -5 -18
-12 2 -7 -4 -10 -12 -7 -8 4 -15 1 -15 -4 0 -12 -38 -27 -57 -24 -6 2 -14 -2
-18 -8 -4 -6 1 -7 11 -3 28 10 7 -15 -27 -32 -16 -9 -31 -15 -34 -15 -3 0 -13
-6 -22 -15 -8 -9 -22 -14 -30 -11 -8 3 -12 2 -9 -3 6 -9 -15 -21 -35 -21 -6 0
-9 12 -7 27 2 19 10 29 28 34 14 4 19 7 11 8 -11 1 -11 4 -1 16 18 22 32 18
25 -6 -5 -15 -4 -19 4 -15 6 4 11 18 11 31 0 21 15 34 50 41 8 2 20 10 26 18
6 9 16 16 21 16 6 0 16 7 23 15 20 24 78 48 105 43 14 -3 25 -1 25 5 0 11 29
47 38 47 2 0 -1 -7 -8 -15z m-374 -1515 c16 -241 16 -262 0 -385 -9 -71 -20
-154 -23 -182 -3 -29 -10 -53 -14 -53 -17 0 -90 74 -142 144 -66 88 -141 242
-158 323 -17 80 0 144 81 308 63 128 135 240 126 195 -13 -66 -17 -122 -7
-116 18 12 50 114 66 213 30 184 25 216 71 -447z m1775 170 c45 -102 92 -216
105 -253 24 -68 24 -69 8 -130 -48 -172 -178 -364 -296 -437 l-47 -29 -5 52
c-27 256 -28 268 -7 442 11 94 25 220 32 280 18 185 35 301 41 285 3 -8 10
-42 17 -74 6 -33 16 -65 22 -70 8 -8 10 19 7 103 l-5 115 23 -50 c13 -27 60
-132 105 -234z m-612 -819 c15 -90 7 -211 -14 -211 -7 0 -25 14 -40 32 -25 29
-27 38 -22 88 5 56 43 170 56 170 4 0 13 -35 20 -79z m-725 29 c61 -56 91
-124 87 -192 -1 -10 -19 -36 -41 -58 -36 -36 -45 -40 -89 -40 -27 0 -56 3 -65
6 -23 9 -20 58 8 172 13 53 27 109 30 125 4 15 11 27 16 27 6 0 30 -18 54 -40z"/>
<path d="M1586 4768 c-20 -19 -42 -50 -50 -69 -9 -20 -15 -27 -16 -16 0 11 -5
15 -11 11 -21 -13 -5 -107 27 -155 26 -39 73 -79 107 -92 7 -3 -11 -25 -40
-52 -40 -35 -53 -53 -53 -74 0 -51 60 -152 133 -224 54 -55 72 -79 84 -120 8
-29 24 -69 34 -89 11 -21 16 -38 11 -38 -14 0 -52 31 -52 43 0 6 -7 31 -17 55
l-16 43 -23 -53 c-13 -32 -24 -47 -27 -38 -3 8 -13 45 -23 83 -11 37 -21 67
-25 67 -3 0 -16 -21 -29 -47 l-23 -46 -28 59 c-16 32 -29 70 -30 84 l0 25 -12
-23 c-9 -19 -5 -41 21 -121 18 -53 32 -105 32 -115 0 -18 31 -67 62 -98 23
-23 23 -20 -7 44 -27 58 -32 120 -11 157 16 28 12 38 47 -111 17 -75 25 -94
34 -84 7 7 16 28 20 47 14 65 21 65 45 -5 16 -49 19 -73 12 -94 l-9 -27 -22
40 c-12 22 -20 31 -17 20 2 -11 8 -36 11 -55 7 -33 30 -70 45 -70 14 0 31 135
21 163 -10 25 -3 36 13 20 7 -7 76 -32 76 -28 0 2 -16 36 -35 76 -19 41 -35
79 -35 85 0 34 -49 113 -104 167 -35 34 -80 93 -101 131 l-38 68 70 67 71 68
43 -26 44 -26 -32 -3 c-36 -4 -46 -22 -12 -22 11 0 17 -4 14 -10 -3 -5 -14
-10 -23 -10 -13 0 -104 -42 -120 -55 -1 -1 2 -14 9 -28 18 -39 87 -61 194 -62
54 0 90 4 89 10 -1 6 -4 30 -8 54 l-7 43 37 -38 c46 -49 70 -102 78 -176 l6
-58 -39 -24 c-44 -28 -56 -53 -47 -101 5 -27 16 -39 59 -63 86 -49 98 -63 104
-115 3 -26 8 -47 12 -47 3 0 17 18 31 39 47 73 110 150 144 176 19 14 37 38
41 52 3 14 22 46 42 70 20 24 33 46 30 49 -3 3 -24 -4 -47 -16 -38 -19 -47
-20 -98 -9 -31 6 -82 9 -114 5 l-56 -6 5 74 c5 68 3 78 -21 118 -14 24 -42 61
-62 83 -36 40 -37 40 -30 11 8 -33 15 -37 -90 44 -272 209 -284 221 -284 281
0 25 7 66 15 89 8 24 13 45 11 48 -3 2 -21 -11 -40 -30z"/>
<path d="M2708 4095 c-3 -5 -9 -32 -14 -60 l-7 -50 -21 43 c-11 23 -25 41 -30
39 -6 -2 -23 -42 -37 -88 l-26 -84 -23 38 c-12 21 -26 35 -31 30 -4 -4 -21
-48 -37 -96 l-30 -88 -28 46 c-16 25 -32 45 -35 45 -4 0 -22 -34 -40 -75 -19
-41 -36 -75 -39 -75 -3 0 -14 17 -25 37 -11 20 -24 38 -30 40 -12 3 -58 -60
-65 -91 -4 -14 -16 -23 -38 -26 -43 -7 -46 -24 -5 -28 28 -3 34 -8 43 -40 5
-20 10 -52 10 -69 0 -18 4 -33 9 -33 5 0 28 29 52 65 44 65 59 77 59 51 0 -8
5 -18 12 -22 8 -5 9 5 5 35 -4 34 1 55 25 107 16 35 31 64 33 64 2 0 12 -15
23 -34 l20 -34 -23 -59 c-12 -32 -26 -69 -30 -83 -7 -22 -6 -23 8 -12 9 8 19
23 23 35 4 11 14 34 24 50 l18 29 23 -41 c23 -41 23 -41 36 -19 14 27 18 72 4
49 -7 -11 -13 -6 -26 19 -16 31 -16 36 6 111 12 44 26 79 29 79 18 0 30 -56
24 -113 -5 -44 -4 -58 5 -53 6 4 11 15 11 24 0 10 7 3 17 -16 8 -18 17 -31 18
-30 9 12 22 68 15 63 -17 -10 -21 35 -11 110 6 42 16 86 22 98 l12 21 9 -23
c11 -30 12 -76 4 -126 l-7 -40 24 38 c27 42 51 152 45 212 -1 22 -6 36 -10 30z"/>
<path d="M1845 3705 c17 -13 32 -24 36 -25 3 0 13 -22 23 -49 29 -83 59 -92
90 -27 14 30 23 37 58 42 40 7 40 7 17 20 -13 7 -40 13 -59 14 -19 0 -59 11
-88 25 -30 14 -66 25 -80 25 l-27 0 30 -25z"/>
<path d="M755 4558 c-2 -7 -11 -58 -21 -113 -16 -89 -19 -163 -25 -508 -1 -53
11 -112 20 -101 4 5 21 56 37 114 33 118 43 104 25 -33 -6 -44 -11 -108 -11
-141 0 -92 32 -196 60 -196 4 0 26 38 48 84 37 79 39 86 30 132 -5 27 -13 87
-17 134 -7 74 -13 95 -50 160 -56 99 -79 200 -82 358 -2 116 -5 137 -14 110z"/>
</g>
</svg>
